<svg id="visual" viewBox="-1 0 900 600" width="900" height="600" xmlns="http://www.w3.org/2000/svg" xmlns:xlink="http://www.w3.org/1999/xlink" version="1.1"><g transform="translate(-18.53340369013982 3.7491169740555392)"><path d="M77.4 -150.3C104.9 -118.3 134.7 -106.6 150 -85C165.4 -63.3 166.2 -31.7 182.1 9.2C197.9 50 228.9 100 218.6 130.5C208.4 160.9 156.9 171.8 113.6 189.2C70.3 206.5 35.2 230.2 0.3 229.8C-34.7 229.4 -69.3 204.8 -95.3 177.4C-121.3 150.1 -138.6 120 -152.8 90C-166.9 60 -178 30 -182 -2.3C-186 -34.7 -183.1 -69.3 -165.6 -93.6C-148.1 -117.8 -116 -131.7 -86 -162.2C-56 -192.7 -28 -239.8 -1.5 -237.2C25 -234.6 50 -182.3 77.4 -150.3" fill="#18183A"></path></g></svg>
